<?xml version="1.0" encoding="UTF-8" standalone="no"?>
<!DOCTYPE svg PUBLIC "-//W3C//DTD SVG 1.1//EN" "http://www.w3.org/Graphics/SVG/1.1/DTD/svg11.dtd">
<svg width="100%" height="100%" viewBox="0 0 677 125" version="1.1" xmlns="http://www.w3.org/2000/svg" xmlns:xlink="http://www.w3.org/1999/xlink" xml:space="preserve" xmlns:serif="http://www.serif.com/" style="fill-rule:evenodd;clip-rule:evenodd;stroke-linejoin:round;stroke-miterlimit:2;">
    <g id="CSD_Light">
        <g transform="matrix(1,0,0,1,24.8193,124.097)">
            <path d="M0,-124.096L0,-107.55L8.274,-107.55L8.274,-115.823L49.639,-115.823L49.639,-107.55L8.274,-107.55L8.274,-91.004L0,-91.004L0,-74.457L-8.274,-74.457L-8.274,-91.004L0,-91.004L0,-107.55L-8.274,-107.55L-8.274,-91.004L-16.546,-91.004L-16.546,-74.457L-24.819,-74.457L-24.819,-57.912L0,-57.912L0,-49.638L8.274,-49.638L8.274,-66.185L16.546,-66.185L16.546,-74.457L41.365,-74.457L41.365,-66.185L16.546,-66.185L16.546,-49.638L8.274,-49.638L8.274,-33.093L0,-33.093L0,-24.819L-8.274,-24.819L-8.274,-33.093L0,-33.093L0,-49.638L-8.274,-49.638L-8.274,-33.093L-16.546,-33.093L-16.546,-16.546L-24.819,-16.546L-24.819,0L-8.274,0L-8.274,-8.272L0,-8.272L0,-16.546L8.274,-16.546L8.274,-24.819L16.546,-24.819L16.546,-33.093L24.819,-33.093L24.819,-41.365L33.093,-41.365L33.093,-49.638L41.365,-49.638L41.365,-57.912L49.639,-57.912L49.639,-66.185L57.912,-66.185L57.912,-82.731L41.365,-82.731L41.365,-91.004L49.639,-91.004L49.639,-99.277L57.912,-99.277L57.912,-107.55L66.184,-107.55L66.184,-124.096L0,-124.096Z" style="fill:rgb(103,197,180);fill-rule:nonzero;"/>
        </g>
        <g transform="matrix(1,0,0,1,33.7842,124.097)">
            <path d="M0,-124.096L0,-107.55L8.274,-107.55L8.274,-115.823L49.639,-115.823L49.639,-107.55L8.274,-107.55L8.274,-91.004L0,-91.004L0,-74.457L-8.273,-74.457L-8.273,-91.004L0,-91.004L0,-107.55L-8.273,-107.55L-8.273,-91.004L-16.546,-91.004L-16.546,-74.457L-24.819,-74.457L-24.819,-57.912L0,-57.912L0,-49.638L8.274,-49.638L8.274,-66.185L16.547,-66.185L16.547,-74.457L41.366,-74.457L41.366,-66.185L16.547,-66.185L16.547,-49.638L8.274,-49.638L8.274,-33.093L0,-33.093L0,-24.819L-8.273,-24.819L-8.273,-33.093L0,-33.093L0,-49.638L-8.273,-49.638L-8.273,-33.093L-16.546,-33.093L-16.546,-16.546L-24.819,-16.546L-24.819,0L-8.273,0L-8.273,-8.272L0,-8.272L0,-16.546L8.274,-16.546L8.274,-24.819L16.547,-24.819L16.547,-33.093L24.819,-33.093L24.819,-41.365L33.093,-41.365L33.093,-49.638L41.366,-49.638L41.366,-57.912L49.639,-57.912L49.639,-66.185L57.912,-66.185L57.912,-82.731L41.366,-82.731L41.366,-91.004L49.639,-91.004L49.639,-99.277L57.912,-99.277L57.912,-107.55L66.186,-107.55L66.186,-124.096L0,-124.096Z" style="fill:rgb(216,38,101);fill-rule:nonzero;"/>
        </g>
        <g transform="matrix(1,0,0,1,28.8873,124.097)">
            <path d="M0,-124.096L0,-107.55L8.274,-107.55L8.274,-115.823L49.639,-115.823L49.639,-107.55L8.274,-107.55L8.274,-91.004L0,-91.004L0,-74.457L-8.273,-74.457L-8.273,-91.004L0,-91.004L0,-107.55L-8.273,-107.55L-8.273,-91.004L-16.546,-91.004L-16.546,-74.457L-24.819,-74.457L-24.819,-57.912L0,-57.912L0,-49.638L8.274,-49.638L8.274,-66.185L16.547,-66.185L16.547,-74.457L41.366,-74.457L41.366,-66.185L16.547,-66.185L16.547,-49.638L8.274,-49.638L8.274,-33.093L0,-33.093L0,-24.819L-8.273,-24.819L-8.273,-33.093L0,-33.093L0,-49.638L-8.273,-49.638L-8.273,-33.093L-16.546,-33.093L-16.546,-16.546L-24.819,-16.546L-24.819,0L-8.273,0L-8.273,-8.272L0,-8.272L0,-16.546L8.274,-16.546L8.274,-24.819L16.547,-24.819L16.547,-33.093L24.82,-33.093L24.82,-41.365L33.093,-41.365L33.093,-49.638L41.366,-49.638L41.366,-57.912L49.639,-57.912L49.639,-66.185L57.912,-66.185L57.912,-82.731L41.366,-82.731L41.366,-91.004L49.639,-91.004L49.639,-99.277L57.912,-99.277L57.912,-107.55L66.185,-107.55L66.185,-124.096L0,-124.096Z" style="fill:white;fill-rule:nonzero;"/>
        </g>
        <g>
            <path d="M147.024,55.347C148.4,55.347 149.576,55.115 150.552,54.651C151.528,54.187 152.328,53.563 152.952,52.779C153.576,51.995 154.04,51.099 154.344,50.091C154.648,49.083 154.8,48.019 154.8,46.899L154.8,46.323L158.832,46.323L158.832,46.899C158.832,48.595 158.576,50.187 158.064,51.675C157.552,53.163 156.8,54.459 155.808,55.563C154.816,56.667 153.584,57.531 152.112,58.155C150.64,58.779 148.944,59.091 147.024,59.091C143.312,59.091 140.416,57.923 138.336,55.587C136.256,53.251 135.216,49.843 135.216,45.363L135.216,37.875C135.216,33.523 136.256,30.147 138.336,27.747C140.416,25.347 143.312,24.147 147.024,24.147C148.944,24.147 150.64,24.459 152.112,25.083C153.584,25.707 154.816,26.571 155.808,27.675C156.8,28.779 157.552,30.075 158.064,31.563C158.576,33.051 158.832,34.643 158.832,36.339L158.832,36.915L154.8,36.915L154.8,36.339C154.768,35.251 154.6,34.195 154.296,33.171C153.992,32.147 153.528,31.243 152.904,30.459C152.28,29.675 151.488,29.051 150.528,28.587C149.568,28.123 148.4,27.891 147.024,27.891C144.432,27.891 142.488,28.835 141.192,30.723C139.896,32.611 139.248,35.091 139.248,38.163L139.248,45.075C139.248,48.371 139.896,50.907 141.192,52.683C142.488,54.459 144.432,55.347 147.024,55.347Z" style="fill:white;fill-rule:nonzero;"/>
            <path d="M182.976,54.099L182.4,54.099C181.632,55.635 180.624,56.851 179.376,57.747C178.128,58.643 176.544,59.091 174.624,59.091C173.312,59.091 172.104,58.875 171,58.443C169.896,58.011 168.952,57.363 168.168,56.499C167.384,55.635 166.776,54.563 166.344,53.283C165.912,52.003 165.696,50.515 165.696,48.819L165.696,34.611L169.44,34.611L169.44,48.339C169.44,50.835 169.952,52.659 170.976,53.811C172,54.963 173.568,55.539 175.68,55.539C177.952,55.539 179.736,54.763 181.032,53.211C182.328,51.659 182.976,49.587 182.976,46.995L182.976,34.611L186.72,34.611L186.72,64.275C186.72,65.363 186.376,66.259 185.688,66.963C185,67.667 184.112,68.019 183.024,68.019L169.44,68.019L169.44,64.563L181.68,64.563C182.544,64.563 182.976,64.083 182.976,63.123L182.976,54.099Z" style="fill:white;fill-rule:nonzero;"/>
            <path d="M197.952,58.419L194.208,58.419L194.208,24.819L197.952,24.819L197.952,38.355L198.528,38.355C199.36,36.915 200.512,35.819 201.984,35.067C203.456,34.315 205.056,33.939 206.784,33.939C208.256,33.939 209.648,34.211 210.96,34.755C212.272,35.299 213.432,36.083 214.44,37.107C215.448,38.131 216.248,39.395 216.84,40.899C217.432,42.403 217.728,44.115 217.728,46.035L217.728,46.995C217.728,48.947 217.44,50.675 216.864,52.179C216.288,53.683 215.496,54.947 214.488,55.971C213.48,56.995 212.304,57.771 210.96,58.299C209.616,58.827 208.192,59.091 206.688,59.091C205.92,59.091 205.136,59.003 204.336,58.827C203.536,58.651 202.776,58.379 202.056,58.011C201.336,57.643 200.672,57.195 200.064,56.667C199.456,56.139 198.944,55.507 198.528,54.771L197.952,54.771L197.952,58.419ZM205.92,55.539C207.072,55.539 208.128,55.339 209.088,54.939C210.048,54.539 210.888,53.971 211.608,53.235C212.328,52.499 212.888,51.603 213.288,50.547C213.688,49.491 213.888,48.307 213.888,46.995L213.888,46.035C213.888,44.755 213.688,43.595 213.288,42.555C212.888,41.515 212.328,40.619 211.608,39.867C210.888,39.115 210.04,38.531 209.064,38.115C208.088,37.699 207.04,37.491 205.92,37.491C204.8,37.491 203.76,37.707 202.8,38.139C201.84,38.571 201,39.171 200.28,39.939C199.56,40.707 198.992,41.627 198.576,42.699C198.16,43.771 197.952,44.947 197.952,46.227L197.952,46.803C197.952,48.115 198.16,49.307 198.576,50.379C198.992,51.451 199.56,52.371 200.28,53.139C201,53.907 201.84,54.499 202.8,54.915C203.76,55.331 204.8,55.539 205.92,55.539Z" style="fill:white;fill-rule:nonzero;"/>
            <path d="M227.184,47.667C227.28,50.035 228.016,51.939 229.392,53.379C230.768,54.819 232.688,55.539 235.152,55.539C236.272,55.539 237.248,55.411 238.08,55.155C238.912,54.899 239.624,54.547 240.216,54.099C240.808,53.651 241.288,53.131 241.656,52.539C242.024,51.947 242.32,51.315 242.544,50.643L246.096,51.603C245.424,53.811 244.184,55.611 242.376,57.003C240.568,58.395 238.128,59.091 235.056,59.091C233.36,59.091 231.8,58.795 230.376,58.203C228.952,57.611 227.728,56.771 226.704,55.683C225.68,54.595 224.88,53.299 224.304,51.795C223.728,50.291 223.44,48.627 223.44,46.803L223.44,45.651C223.44,43.987 223.736,42.435 224.328,40.995C224.92,39.555 225.744,38.315 226.8,37.275C227.856,36.235 229.096,35.419 230.52,34.827C231.944,34.235 233.488,33.939 235.152,33.939C237.104,33.939 238.792,34.299 240.216,35.019C241.64,35.739 242.808,36.627 243.72,37.683C244.632,38.739 245.304,39.891 245.736,41.139C246.168,42.387 246.384,43.539 246.384,44.595L246.384,47.667L227.184,47.667ZM235.152,37.491C234.096,37.491 233.112,37.659 232.2,37.995C231.288,38.331 230.488,38.803 229.8,39.411C229.112,40.019 228.552,40.731 228.12,41.547C227.688,42.363 227.408,43.251 227.28,44.211L242.64,44.211C242.576,43.187 242.328,42.259 241.896,41.427C241.464,40.595 240.904,39.891 240.216,39.315C239.528,38.739 238.744,38.291 237.864,37.971C236.984,37.651 236.08,37.491 235.152,37.491Z" style="fill:white;fill-rule:nonzero;"/>
            <path d="M252.48,34.611L261.12,34.611L261.12,37.779L261.696,37.779C262.304,36.467 263.168,35.499 264.288,34.875C265.408,34.251 266.688,33.939 268.128,33.939C270.528,33.939 272.464,34.723 273.936,36.291C275.408,37.859 276.192,40.147 276.288,43.155L272.352,43.731C272.352,41.523 271.824,39.931 270.768,38.955C269.712,37.979 268.416,37.491 266.88,37.491C265.888,37.491 265.032,37.683 264.312,38.067C263.592,38.451 262.992,38.979 262.512,39.651C262.032,40.323 261.68,41.107 261.456,42.003C261.232,42.899 261.12,43.859 261.12,44.883L261.12,54.963L267.168,54.963L267.168,58.419L251.904,58.419L251.904,54.963L257.376,54.963L257.376,38.067L252.48,38.067L252.48,34.611Z" style="fill:white;fill-rule:nonzero;"/>
            <path d="M326.208,34.515C326.208,33.427 325.992,32.467 325.56,31.635C325.128,30.803 324.544,30.115 323.808,29.571C323.072,29.027 322.224,28.611 321.264,28.323C320.304,28.035 319.296,27.891 318.24,27.891C317.312,27.891 316.432,28.011 315.6,28.251C314.768,28.491 314.024,28.835 313.368,29.283C312.712,29.731 312.192,30.283 311.808,30.939C311.424,31.595 311.232,32.355 311.232,33.219L311.232,33.507C311.232,34.435 311.424,35.227 311.808,35.883C312.192,36.539 312.76,37.099 313.512,37.563C314.264,38.027 315.2,38.411 316.32,38.715C317.44,39.019 318.752,39.283 320.256,39.507C323.776,40.051 326.368,41.083 328.032,42.603C329.696,44.123 330.528,46.163 330.528,48.723L330.528,49.299C330.528,50.739 330.28,52.059 329.784,53.259C329.288,54.459 328.552,55.491 327.576,56.355C326.6,57.219 325.392,57.891 323.952,58.371C322.512,58.851 320.848,59.091 318.96,59.091C316.816,59.091 314.92,58.779 313.272,58.155C311.624,57.531 310.248,56.667 309.144,55.563C308.04,54.459 307.2,53.163 306.624,51.675C306.048,50.187 305.76,48.563 305.76,46.803L305.76,45.363L309.792,45.363L309.792,46.515C309.792,49.459 310.6,51.667 312.216,53.139C313.832,54.611 316.08,55.347 318.96,55.347C321.456,55.347 323.336,54.795 324.6,53.691C325.864,52.587 326.496,51.123 326.496,49.299L326.496,49.011C326.496,47.251 325.848,45.907 324.552,44.979C323.256,44.051 321.152,43.379 318.24,42.963C316.544,42.739 315.016,42.395 313.656,41.931C312.296,41.467 311.136,40.859 310.176,40.107C309.216,39.355 308.48,38.451 307.968,37.395C307.456,36.339 307.2,35.091 307.2,33.651L307.2,33.075C307.2,31.763 307.472,30.563 308.016,29.475C308.56,28.387 309.32,27.443 310.296,26.643C311.272,25.843 312.44,25.227 313.8,24.795C315.16,24.363 316.656,24.147 318.288,24.147C320.176,24.147 321.864,24.419 323.352,24.963C324.84,25.507 326.096,26.235 327.12,27.147C328.144,28.059 328.92,29.131 329.448,30.363C329.976,31.595 330.24,32.883 330.24,34.227L330.24,36.243L326.208,36.243L326.208,34.515Z" style="fill:white;fill-rule:nonzero;"/>
            <path d="M339.888,47.667C339.984,50.035 340.72,51.939 342.096,53.379C343.472,54.819 345.392,55.539 347.856,55.539C348.976,55.539 349.952,55.411 350.784,55.155C351.616,54.899 352.328,54.547 352.92,54.099C353.512,53.651 353.992,53.131 354.36,52.539C354.728,51.947 355.024,51.315 355.248,50.643L358.8,51.603C358.128,53.811 356.888,55.611 355.08,57.003C353.272,58.395 350.832,59.091 347.76,59.091C346.064,59.091 344.504,58.795 343.08,58.203C341.656,57.611 340.432,56.771 339.408,55.683C338.384,54.595 337.584,53.299 337.008,51.795C336.432,50.291 336.144,48.627 336.144,46.803L336.144,45.651C336.144,43.987 336.44,42.435 337.032,40.995C337.624,39.555 338.448,38.315 339.504,37.275C340.56,36.235 341.8,35.419 343.224,34.827C344.648,34.235 346.192,33.939 347.856,33.939C349.808,33.939 351.496,34.299 352.92,35.019C354.344,35.739 355.512,36.627 356.424,37.683C357.336,38.739 358.008,39.891 358.44,41.139C358.872,42.387 359.088,43.539 359.088,44.595L359.088,47.667L339.888,47.667ZM347.856,37.491C346.8,37.491 345.816,37.659 344.904,37.995C343.992,38.331 343.192,38.803 342.504,39.411C341.816,40.019 341.256,40.731 340.824,41.547C340.392,42.363 340.112,43.251 339.984,44.211L355.344,44.211C355.28,43.187 355.032,42.259 354.6,41.427C354.168,40.595 353.608,39.891 352.92,39.315C352.232,38.739 351.448,38.291 350.568,37.971C349.688,37.651 348.784,37.491 347.856,37.491Z" style="fill:white;fill-rule:nonzero;"/>
            <path d="M388.8,49.971C388.544,51.283 388.104,52.499 387.48,53.619C386.856,54.739 386.064,55.707 385.104,56.523C384.144,57.339 383.024,57.971 381.744,58.419C380.464,58.867 379.04,59.091 377.472,59.091C375.808,59.091 374.232,58.819 372.744,58.275C371.256,57.731 369.952,56.939 368.832,55.899C367.712,54.859 366.824,53.587 366.168,52.083C365.512,50.579 365.184,48.851 365.184,46.899L365.184,46.323C365.184,44.403 365.512,42.675 366.168,41.139C366.824,39.603 367.712,38.307 368.832,37.251C369.952,36.195 371.256,35.379 372.744,34.803C374.232,34.227 375.808,33.939 377.472,33.939C378.976,33.939 380.368,34.163 381.648,34.611C382.928,35.059 384.056,35.691 385.032,36.507C386.008,37.323 386.808,38.291 387.432,39.411C388.056,40.531 388.48,41.747 388.704,43.059L384.96,43.923C384.864,43.091 384.632,42.283 384.264,41.499C383.896,40.715 383.4,40.027 382.776,39.435C382.152,38.843 381.392,38.371 380.496,38.019C379.6,37.667 378.56,37.491 377.376,37.491C376.224,37.491 375.144,37.707 374.136,38.139C373.128,38.571 372.24,39.179 371.472,39.963C370.704,40.747 370.104,41.683 369.672,42.771C369.24,43.859 369.024,45.043 369.024,46.323L369.024,46.899C369.024,48.243 369.24,49.451 369.672,50.523C370.104,51.595 370.704,52.499 371.472,53.235C372.24,53.971 373.136,54.539 374.16,54.939C375.184,55.339 376.288,55.539 377.472,55.539C378.656,55.539 379.688,55.355 380.568,54.987C381.448,54.619 382.2,54.139 382.824,53.547C383.448,52.955 383.944,52.275 384.312,51.507C384.68,50.739 384.928,49.939 385.056,49.107L388.8,49.971Z" style="fill:white;fill-rule:nonzero;"/>
            <path d="M412.896,34.611L416.64,34.611L416.64,58.419L412.896,58.419L412.896,54.099L412.32,54.099C411.552,55.635 410.544,56.851 409.296,57.747C408.048,58.643 406.464,59.091 404.544,59.091C403.232,59.091 402.024,58.875 400.92,58.443C399.816,58.011 398.872,57.363 398.088,56.499C397.304,55.635 396.696,54.563 396.264,53.283C395.832,52.003 395.616,50.515 395.616,48.819L395.616,34.611L399.36,34.611L399.36,48.339C399.36,50.835 399.872,52.659 400.896,53.811C401.92,54.963 403.488,55.539 405.6,55.539C407.872,55.539 409.656,54.763 410.952,53.211C412.248,51.659 412.896,49.587 412.896,46.995L412.896,34.611Z" style="fill:white;fill-rule:nonzero;"/>
            <path d="M423.936,34.611L432.576,34.611L432.576,37.779L433.152,37.779C433.76,36.467 434.624,35.499 435.744,34.875C436.864,34.251 438.144,33.939 439.584,33.939C441.984,33.939 443.92,34.723 445.392,36.291C446.864,37.859 447.648,40.147 447.744,43.155L443.808,43.731C443.808,41.523 443.28,39.931 442.224,38.955C441.168,37.979 439.872,37.491 438.336,37.491C437.344,37.491 436.488,37.683 435.768,38.067C435.048,38.451 434.448,38.979 433.968,39.651C433.488,40.323 433.136,41.107 432.912,42.003C432.688,42.899 432.576,43.859 432.576,44.883L432.576,54.963L438.624,54.963L438.624,58.419L423.36,58.419L423.36,54.963L428.832,54.963L428.832,38.067L423.936,38.067L423.936,34.611Z" style="fill:white;fill-rule:nonzero;"/>
            <path d="M462.048,27.507C462.048,26.579 462.376,25.787 463.032,25.131C463.688,24.475 464.48,24.147 465.408,24.147C466.336,24.147 467.128,24.475 467.784,25.131C468.44,25.787 468.768,26.579 468.768,27.507C468.768,28.435 468.44,29.227 467.784,29.883C467.128,30.539 466.336,30.867 465.408,30.867C464.48,30.867 463.688,30.539 463.032,29.883C462.376,29.227 462.048,28.435 462.048,27.507ZM455.232,54.963L463.584,54.963L463.584,38.067L456.096,38.067L456.096,34.611L467.328,34.611L467.328,54.963L475.104,54.963L475.104,58.419L455.232,58.419L455.232,54.963Z" style="fill:white;fill-rule:nonzero;"/>
            <path d="M480.816,34.611L488.304,34.611L488.304,24.819L492.048,24.819L492.048,34.611L501.264,34.611L501.264,38.067L492.048,38.067L492.048,53.523C492.048,54.483 492.48,54.963 493.344,54.963L500.112,54.963L500.112,58.419L492,58.419C490.912,58.419 490.024,58.067 489.336,57.363C488.648,56.659 488.304,55.763 488.304,54.675L488.304,38.067L480.816,38.067L480.816,34.611Z" style="fill:white;fill-rule:nonzero;"/>
            <path d="M528.288,54.099L527.712,54.099C526.944,55.635 525.936,56.851 524.688,57.747C523.44,58.643 521.856,59.091 519.936,59.091C518.624,59.091 517.416,58.875 516.312,58.443C515.208,58.011 514.264,57.363 513.48,56.499C512.696,55.635 512.088,54.563 511.656,53.283C511.224,52.003 511.008,50.515 511.008,48.819L511.008,34.611L514.752,34.611L514.752,48.339C514.752,50.835 515.264,52.659 516.288,53.811C517.312,54.963 518.88,55.539 520.992,55.539C523.264,55.539 525.048,54.763 526.344,53.211C527.64,51.659 528.288,49.587 528.288,46.995L528.288,34.611L532.032,34.611L532.032,64.275C532.032,65.363 531.688,66.259 531,66.963C530.312,67.667 529.424,68.019 528.336,68.019L514.752,68.019L514.752,64.563L526.992,64.563C527.856,64.563 528.288,64.083 528.288,63.123L528.288,54.099Z" style="fill:white;fill-rule:nonzero;"/>
            <path d="M564.288,24.819L575.328,24.819C579.488,24.819 582.528,25.811 584.448,27.795C586.368,29.779 587.328,32.947 587.328,37.299L587.328,45.939C587.328,50.291 586.368,53.459 584.448,55.443C582.528,57.427 579.488,58.419 575.328,58.419L564.288,58.419L564.288,54.627L567.168,54.627L567.168,28.563L564.288,28.563L564.288,24.819ZM574.752,54.675C576.224,54.675 577.496,54.531 578.568,54.243C579.64,53.955 580.528,53.467 581.232,52.779C581.936,52.091 582.456,51.171 582.792,50.019C583.128,48.867 583.296,47.411 583.296,45.651L583.296,37.587C583.296,35.827 583.128,34.371 582.792,33.219C582.456,32.067 581.936,31.147 581.232,30.459C580.528,29.771 579.64,29.283 578.568,28.995C577.496,28.707 576.224,28.563 574.752,28.563L571.2,28.563L571.2,54.675L574.752,54.675Z" style="fill:white;fill-rule:nonzero;"/>
            <path d="M611.616,54.387L611.04,54.387C610.272,55.987 609.208,57.171 607.848,57.939C606.488,58.707 605.056,59.091 603.552,59.091C601.984,59.091 600.528,58.827 599.184,58.299C597.84,57.771 596.664,56.987 595.656,55.947C594.648,54.907 593.856,53.635 593.28,52.131C592.704,50.627 592.416,48.883 592.416,46.899L592.416,46.131C592.416,44.179 592.704,42.451 593.28,40.947C593.856,39.443 594.648,38.171 595.656,37.131C596.664,36.091 597.84,35.299 599.184,34.755C600.528,34.211 601.952,33.939 603.456,33.939C605.088,33.939 606.568,34.299 607.896,35.019C609.224,35.739 610.272,36.851 611.04,38.355L611.616,38.355L611.616,34.611L615.36,34.611L615.36,53.523C615.36,54.483 615.792,54.963 616.656,54.963L617.856,54.963L617.856,58.419L615.312,58.419C614.224,58.419 613.336,58.067 612.648,57.363C611.96,56.659 611.616,55.763 611.616,54.675L611.616,54.387ZM603.936,55.539C605.056,55.539 606.088,55.331 607.032,54.915C607.976,54.499 608.784,53.907 609.456,53.139C610.128,52.371 610.656,51.451 611.04,50.379C611.424,49.307 611.616,48.115 611.616,46.803L611.616,46.227C611.616,44.947 611.424,43.771 611.04,42.699C610.656,41.627 610.12,40.707 609.432,39.939C608.744,39.171 607.928,38.571 606.984,38.139C606.04,37.707 605.024,37.491 603.936,37.491C602.816,37.491 601.792,37.699 600.864,38.115C599.936,38.531 599.128,39.115 598.44,39.867C597.752,40.619 597.216,41.531 596.832,42.603C596.448,43.675 596.256,44.851 596.256,46.131L596.256,46.899C596.256,49.619 596.968,51.739 598.392,53.259C599.816,54.779 601.664,55.539 603.936,55.539Z" style="fill:white;fill-rule:nonzero;"/>
            <path d="M640.992,54.099L640.416,54.099C639.648,55.635 638.64,56.851 637.392,57.747C636.144,58.643 634.56,59.091 632.64,59.091C631.328,59.091 630.12,58.875 629.016,58.443C627.912,58.011 626.968,57.363 626.184,56.499C625.4,55.635 624.792,54.563 624.36,53.283C623.928,52.003 623.712,50.515 623.712,48.819L623.712,34.611L627.456,34.611L627.456,48.339C627.456,50.835 627.968,52.659 628.992,53.811C630.016,54.963 631.584,55.539 633.696,55.539C635.968,55.539 637.752,54.763 639.048,53.211C640.344,51.659 640.992,49.587 640.992,46.995L640.992,34.611L644.736,34.611L644.736,64.275C644.736,65.363 644.392,66.259 643.704,66.963C643.016,67.667 642.128,68.019 641.04,68.019L627.456,68.019L627.456,64.563L639.696,64.563C640.56,64.563 640.992,64.083 640.992,63.123L640.992,54.099Z" style="fill:white;fill-rule:nonzero;"/>
            <path d="M655.632,40.755C655.632,41.907 656.12,42.787 657.096,43.395C658.072,44.003 659.856,44.403 662.448,44.595C665.232,44.819 667.352,45.483 668.808,46.587C670.264,47.691 670.992,49.299 670.992,51.411L670.992,51.699C670.992,52.851 670.76,53.883 670.296,54.795C669.832,55.707 669.192,56.483 668.376,57.123C667.56,57.763 666.568,58.251 665.4,58.587C664.232,58.923 662.96,59.091 661.584,59.091C659.728,59.091 658.136,58.843 656.808,58.347C655.48,57.851 654.376,57.195 653.496,56.379C652.616,55.563 651.952,54.635 651.504,53.595C651.056,52.555 650.8,51.507 650.736,50.451L654.288,49.587C654.448,51.411 655.152,52.875 656.4,53.979C657.648,55.083 659.312,55.635 661.392,55.635C663.152,55.635 664.568,55.291 665.64,54.603C666.712,53.915 667.248,52.947 667.248,51.699C667.248,50.355 666.72,49.395 665.664,48.819C664.608,48.243 662.896,47.875 660.528,47.715C657.776,47.523 655.664,46.883 654.192,45.795C652.72,44.707 651.984,43.123 651.984,41.043L651.984,40.755C651.984,39.635 652.224,38.651 652.704,37.803C653.184,36.955 653.832,36.243 654.648,35.667C655.464,35.091 656.384,34.659 657.408,34.371C658.432,34.083 659.504,33.939 660.624,33.939C662.192,33.939 663.568,34.155 664.752,34.587C665.936,35.019 666.928,35.579 667.728,36.267C668.528,36.955 669.144,37.747 669.576,38.643C670.008,39.539 670.288,40.435 670.416,41.331L666.864,42.195C666.704,40.659 666.088,39.459 665.016,38.595C663.944,37.731 662.544,37.299 660.816,37.299C660.144,37.299 659.496,37.371 658.872,37.515C658.248,37.659 657.696,37.875 657.216,38.163C656.736,38.451 656.352,38.811 656.064,39.243C655.776,39.675 655.632,40.179 655.632,40.755Z" style="fill:white;fill-rule:nonzero;"/>
            <path d="M147.368,90.035C147.24,90.691 147.02,91.299 146.708,91.859C146.396,92.419 146,92.903 145.52,93.311C145.04,93.719 144.48,94.035 143.84,94.259C143.2,94.483 142.488,94.595 141.704,94.595C140.872,94.595 140.084,94.459 139.34,94.187C138.596,93.915 137.944,93.519 137.384,92.999C136.824,92.479 136.38,91.843 136.052,91.091C135.724,90.339 135.56,89.475 135.56,88.499L135.56,88.211C135.56,87.251 135.724,86.387 136.052,85.619C136.38,84.851 136.824,84.203 137.384,83.675C137.944,83.147 138.596,82.739 139.34,82.451C140.084,82.163 140.872,82.019 141.704,82.019C142.456,82.019 143.152,82.131 143.792,82.355C144.432,82.579 144.996,82.895 145.484,83.303C145.972,83.711 146.372,84.195 146.684,84.755C146.996,85.315 147.208,85.923 147.32,86.579L145.448,87.011C145.4,86.595 145.284,86.191 145.1,85.799C144.916,85.407 144.668,85.063 144.356,84.767C144.044,84.471 143.664,84.235 143.216,84.059C142.768,83.883 142.248,83.795 141.656,83.795C141.08,83.795 140.54,83.903 140.036,84.119C139.532,84.335 139.088,84.639 138.704,85.031C138.32,85.423 138.02,85.891 137.804,86.435C137.588,86.979 137.48,87.571 137.48,88.211L137.48,88.499C137.48,89.171 137.588,89.775 137.804,90.311C138.02,90.847 138.32,91.299 138.704,91.667C139.088,92.035 139.536,92.319 140.048,92.519C140.56,92.719 141.112,92.819 141.704,92.819C142.296,92.819 142.812,92.727 143.252,92.543C143.692,92.359 144.068,92.119 144.38,91.823C144.692,91.527 144.94,91.187 145.124,90.803C145.308,90.419 145.432,90.019 145.496,89.603L147.368,90.035Z" style="fill:white;fill-rule:nonzero;"/>
            <path d="M158.36,92.099L158.072,92.099C157.688,92.867 157.184,93.475 156.56,93.923C155.936,94.371 155.144,94.595 154.184,94.595C153.528,94.595 152.924,94.487 152.372,94.271C151.82,94.055 151.348,93.731 150.956,93.299C150.564,92.867 150.26,92.331 150.044,91.691C149.828,91.051 149.72,90.307 149.72,89.459L149.72,82.355L151.592,82.355L151.592,89.219C151.592,90.467 151.848,91.379 152.36,91.955C152.872,92.531 153.656,92.819 154.712,92.819C155.848,92.819 156.74,92.431 157.388,91.655C158.036,90.879 158.36,89.843 158.36,88.547L158.36,82.355L160.232,82.355L160.232,97.187C160.232,97.731 160.06,98.179 159.716,98.531C159.372,98.883 158.928,99.059 158.384,99.059L151.592,99.059L151.592,97.331L157.712,97.331C158.144,97.331 158.36,97.091 158.36,96.611L158.36,92.099Z" style="fill:white;fill-rule:nonzero;"/>
            <path d="M164.648,94.259L162.776,94.259L162.776,77.459L164.648,77.459L164.648,84.227L164.936,84.227C165.352,83.507 165.928,82.959 166.664,82.583C167.4,82.207 168.2,82.019 169.064,82.019C169.8,82.019 170.496,82.155 171.152,82.427C171.808,82.699 172.388,83.091 172.892,83.603C173.396,84.115 173.796,84.747 174.092,85.499C174.388,86.251 174.536,87.107 174.536,88.067L174.536,88.547C174.536,89.523 174.392,90.387 174.104,91.139C173.816,91.891 173.42,92.523 172.916,93.035C172.412,93.547 171.824,93.935 171.152,94.199C170.48,94.463 169.768,94.595 169.016,94.595C168.632,94.595 168.24,94.551 167.84,94.463C167.44,94.375 167.06,94.239 166.7,94.055C166.34,93.871 166.008,93.647 165.704,93.383C165.4,93.119 165.144,92.803 164.936,92.435L164.648,92.435L164.648,94.259ZM168.632,92.819C169.208,92.819 169.736,92.719 170.216,92.519C170.696,92.319 171.116,92.035 171.476,91.667C171.836,91.299 172.116,90.851 172.316,90.323C172.516,89.795 172.616,89.203 172.616,88.547L172.616,88.067C172.616,87.427 172.516,86.847 172.316,86.327C172.116,85.807 171.836,85.359 171.476,84.983C171.116,84.607 170.692,84.315 170.204,84.107C169.716,83.899 169.192,83.795 168.632,83.795C168.072,83.795 167.552,83.903 167.072,84.119C166.592,84.335 166.172,84.635 165.812,85.019C165.452,85.403 165.168,85.863 164.96,86.399C164.752,86.935 164.648,87.523 164.648,88.163L164.648,88.451C164.648,89.107 164.752,89.703 164.96,90.239C165.168,90.775 165.452,91.235 165.812,91.619C166.172,92.003 166.592,92.299 167.072,92.507C167.552,92.715 168.072,92.819 168.632,92.819Z" style="fill:white;fill-rule:nonzero;"/>
            <path d="M178.064,88.883C178.112,90.067 178.48,91.019 179.168,91.739C179.856,92.459 180.816,92.819 182.048,92.819C182.608,92.819 183.096,92.755 183.512,92.627C183.928,92.499 184.284,92.323 184.58,92.099C184.876,91.875 185.116,91.615 185.3,91.319C185.484,91.023 185.632,90.707 185.744,90.371L187.52,90.851C187.184,91.955 186.564,92.855 185.66,93.551C184.756,94.247 183.536,94.595 182,94.595C181.152,94.595 180.372,94.447 179.66,94.151C178.948,93.855 178.336,93.435 177.824,92.891C177.312,92.347 176.912,91.699 176.624,90.947C176.336,90.195 176.192,89.363 176.192,88.451L176.192,87.875C176.192,87.043 176.34,86.267 176.636,85.547C176.932,84.827 177.344,84.207 177.872,83.687C178.4,83.167 179.02,82.759 179.732,82.463C180.444,82.167 181.216,82.019 182.048,82.019C183.024,82.019 183.868,82.199 184.58,82.559C185.292,82.919 185.876,83.363 186.332,83.891C186.788,84.419 187.124,84.995 187.34,85.619C187.556,86.243 187.664,86.819 187.664,87.347L187.664,88.883L178.064,88.883ZM182.048,83.795C181.52,83.795 181.028,83.879 180.572,84.047C180.116,84.215 179.716,84.451 179.372,84.755C179.028,85.059 178.748,85.415 178.532,85.823C178.316,86.231 178.176,86.675 178.112,87.155L185.792,87.155C185.76,86.643 185.636,86.179 185.42,85.763C185.204,85.347 184.924,84.995 184.58,84.707C184.236,84.419 183.844,84.195 183.404,84.035C182.964,83.875 182.512,83.795 182.048,83.795Z" style="fill:white;fill-rule:nonzero;"/>
            <path d="M189.512,82.355L193.832,82.355L193.832,83.939L194.12,83.939C194.424,83.283 194.856,82.799 195.416,82.487C195.976,82.175 196.616,82.019 197.336,82.019C198.536,82.019 199.504,82.411 200.24,83.195C200.976,83.979 201.368,85.123 201.416,86.627L199.448,86.915C199.448,85.811 199.184,85.015 198.656,84.527C198.128,84.039 197.48,83.795 196.712,83.795C196.216,83.795 195.788,83.891 195.428,84.083C195.068,84.275 194.768,84.539 194.528,84.875C194.288,85.211 194.112,85.603 194,86.051C193.888,86.499 193.832,86.979 193.832,87.491L193.832,92.531L196.856,92.531L196.856,94.259L189.224,94.259L189.224,92.531L191.96,92.531L191.96,84.083L189.512,84.083L189.512,82.355Z" style="fill:white;fill-rule:nonzero;"/>
            <path d="M206.144,85.427C206.144,86.003 206.388,86.443 206.876,86.747C207.364,87.051 208.256,87.251 209.552,87.347C210.944,87.459 212.004,87.791 212.732,88.343C213.46,88.895 213.824,89.699 213.824,90.755L213.824,90.899C213.824,91.475 213.708,91.991 213.476,92.447C213.244,92.903 212.924,93.291 212.516,93.611C212.108,93.931 211.612,94.175 211.028,94.343C210.444,94.511 209.808,94.595 209.12,94.595C208.192,94.595 207.396,94.471 206.732,94.223C206.068,93.975 205.516,93.647 205.076,93.239C204.636,92.831 204.304,92.367 204.08,91.847C203.856,91.327 203.728,90.803 203.696,90.275L205.472,89.843C205.552,90.755 205.904,91.487 206.528,92.039C207.152,92.591 207.984,92.867 209.024,92.867C209.904,92.867 210.612,92.695 211.148,92.351C211.684,92.007 211.952,91.523 211.952,90.899C211.952,90.227 211.688,89.747 211.16,89.459C210.632,89.171 209.776,88.987 208.592,88.907C207.216,88.811 206.16,88.491 205.424,87.947C204.688,87.403 204.32,86.611 204.32,85.571L204.32,85.427C204.32,84.867 204.44,84.375 204.68,83.951C204.92,83.527 205.244,83.171 205.652,82.883C206.06,82.595 206.52,82.379 207.032,82.235C207.544,82.091 208.08,82.019 208.64,82.019C209.424,82.019 210.112,82.127 210.704,82.343C211.296,82.559 211.792,82.839 212.192,83.183C212.592,83.527 212.9,83.923 213.116,84.371C213.332,84.819 213.472,85.267 213.536,85.715L211.76,86.147C211.68,85.379 211.372,84.779 210.836,84.347C210.3,83.915 209.6,83.699 208.736,83.699C208.4,83.699 208.076,83.735 207.764,83.807C207.452,83.879 207.176,83.987 206.936,84.131C206.696,84.275 206.504,84.455 206.36,84.671C206.216,84.887 206.144,85.139 206.144,85.427Z" style="fill:white;fill-rule:nonzero;"/>
            <path d="M218.528,88.883C218.576,90.067 218.944,91.019 219.632,91.739C220.32,92.459 221.28,92.819 222.512,92.819C223.072,92.819 223.56,92.755 223.976,92.627C224.392,92.499 224.748,92.323 225.044,92.099C225.34,91.875 225.58,91.615 225.764,91.319C225.948,91.023 226.096,90.707 226.208,90.371L227.984,90.851C227.648,91.955 227.028,92.855 226.124,93.551C225.22,94.247 224,94.595 222.464,94.595C221.616,94.595 220.836,94.447 220.124,94.151C219.412,93.855 218.8,93.435 218.288,92.891C217.776,92.347 217.376,91.699 217.088,90.947C216.8,90.195 216.656,89.363 216.656,88.451L216.656,87.875C216.656,87.043 216.804,86.267 217.1,85.547C217.396,84.827 217.808,84.207 218.336,83.687C218.864,83.167 219.484,82.759 220.196,82.463C220.908,82.167 221.68,82.019 222.512,82.019C223.488,82.019 224.332,82.199 225.044,82.559C225.756,82.919 226.34,83.363 226.796,83.891C227.252,84.419 227.588,84.995 227.804,85.619C228.02,86.243 228.128,86.819 228.128,87.347L228.128,88.883L218.528,88.883ZM222.512,83.795C221.984,83.795 221.492,83.879 221.036,84.047C220.58,84.215 220.18,84.451 219.836,84.755C219.492,85.059 219.212,85.415 218.996,85.823C218.78,86.231 218.64,86.675 218.576,87.155L226.256,87.155C226.224,86.643 226.1,86.179 225.884,85.763C225.668,85.347 225.388,84.995 225.044,84.707C224.7,84.419 224.308,84.195 223.868,84.035C223.428,83.875 222.976,83.795 222.512,83.795Z" style="fill:white;fill-rule:nonzero;"/>
            <path d="M241.784,90.035C241.656,90.691 241.436,91.299 241.124,91.859C240.812,92.419 240.416,92.903 239.936,93.311C239.456,93.719 238.896,94.035 238.256,94.259C237.616,94.483 236.904,94.595 236.12,94.595C235.288,94.595 234.5,94.459 233.756,94.187C233.012,93.915 232.36,93.519 231.8,92.999C231.24,92.479 230.796,91.843 230.468,91.091C230.14,90.339 229.976,89.475 229.976,88.499L229.976,88.211C229.976,87.251 230.14,86.387 230.468,85.619C230.796,84.851 231.24,84.203 231.8,83.675C232.36,83.147 233.012,82.739 233.756,82.451C234.5,82.163 235.288,82.019 236.12,82.019C236.872,82.019 237.568,82.131 238.208,82.355C238.848,82.579 239.412,82.895 239.9,83.303C240.388,83.711 240.788,84.195 241.1,84.755C241.412,85.315 241.624,85.923 241.736,86.579L239.864,87.011C239.816,86.595 239.7,86.191 239.516,85.799C239.332,85.407 239.084,85.063 238.772,84.767C238.46,84.471 238.08,84.235 237.632,84.059C237.184,83.883 236.664,83.795 236.072,83.795C235.496,83.795 234.956,83.903 234.452,84.119C233.948,84.335 233.504,84.639 233.12,85.031C232.736,85.423 232.436,85.891 232.22,86.435C232.004,86.979 231.896,87.571 231.896,88.211L231.896,88.499C231.896,89.171 232.004,89.775 232.22,90.311C232.436,90.847 232.736,91.299 233.12,91.667C233.504,92.035 233.952,92.319 234.464,92.519C234.976,92.719 235.528,92.819 236.12,92.819C236.712,92.819 237.228,92.727 237.668,92.543C238.108,92.359 238.484,92.119 238.796,91.823C239.108,91.527 239.356,91.187 239.54,90.803C239.724,90.419 239.848,90.019 239.912,89.603L241.784,90.035Z" style="fill:white;fill-rule:nonzero;"/>
            <path d="M252.632,82.355L254.504,82.355L254.504,94.259L252.632,94.259L252.632,92.099L252.344,92.099C251.96,92.867 251.456,93.475 250.832,93.923C250.208,94.371 249.416,94.595 248.456,94.595C247.8,94.595 247.196,94.487 246.644,94.271C246.092,94.055 245.62,93.731 245.228,93.299C244.836,92.867 244.532,92.331 244.316,91.691C244.1,91.051 243.992,90.307 243.992,89.459L243.992,82.355L245.864,82.355L245.864,89.219C245.864,90.467 246.12,91.379 246.632,91.955C247.144,92.531 247.928,92.819 248.984,92.819C250.12,92.819 251.012,92.431 251.66,91.655C252.308,90.879 252.632,89.843 252.632,88.547L252.632,82.355Z" style="fill:white;fill-rule:nonzero;"/>
            <path d="M256.952,82.355L261.272,82.355L261.272,83.939L261.56,83.939C261.864,83.283 262.296,82.799 262.856,82.487C263.416,82.175 264.056,82.019 264.776,82.019C265.976,82.019 266.944,82.411 267.68,83.195C268.416,83.979 268.808,85.123 268.856,86.627L266.888,86.915C266.888,85.811 266.624,85.015 266.096,84.527C265.568,84.039 264.92,83.795 264.152,83.795C263.656,83.795 263.228,83.891 262.868,84.083C262.508,84.275 262.208,84.539 261.968,84.875C261.728,85.211 261.552,85.603 261.44,86.051C261.328,86.499 261.272,86.979 261.272,87.491L261.272,92.531L264.296,92.531L264.296,94.259L256.664,94.259L256.664,92.531L259.4,92.531L259.4,84.083L256.952,84.083L256.952,82.355Z" style="fill:white;fill-rule:nonzero;"/>
            <path d="M274.808,78.803C274.808,78.339 274.972,77.943 275.3,77.615C275.628,77.287 276.024,77.123 276.488,77.123C276.952,77.123 277.348,77.287 277.676,77.615C278.004,77.943 278.168,78.339 278.168,78.803C278.168,79.267 278.004,79.663 277.676,79.991C277.348,80.319 276.952,80.483 276.488,80.483C276.024,80.483 275.628,80.319 275.3,79.991C274.972,79.663 274.808,79.267 274.808,78.803ZM271.4,92.531L275.576,92.531L275.576,84.083L271.832,84.083L271.832,82.355L277.448,82.355L277.448,92.531L281.336,92.531L281.336,94.259L271.4,94.259L271.4,92.531Z" style="fill:white;fill-rule:nonzero;"/>
            <path d="M282.992,82.355L286.736,82.355L286.736,77.459L288.608,77.459L288.608,82.355L293.216,82.355L293.216,84.083L288.608,84.083L288.608,91.811C288.608,92.291 288.824,92.531 289.256,92.531L292.64,92.531L292.64,94.259L288.584,94.259C288.04,94.259 287.596,94.083 287.252,93.731C286.908,93.379 286.736,92.931 286.736,92.387L286.736,84.083L282.992,84.083L282.992,82.355Z" style="fill:white;fill-rule:nonzero;"/>
            <path d="M305.528,92.099L305.24,92.099C304.856,92.867 304.352,93.475 303.728,93.923C303.104,94.371 302.312,94.595 301.352,94.595C300.696,94.595 300.092,94.487 299.54,94.271C298.988,94.055 298.516,93.731 298.124,93.299C297.732,92.867 297.428,92.331 297.212,91.691C296.996,91.051 296.888,90.307 296.888,89.459L296.888,82.355L298.76,82.355L298.76,89.219C298.76,90.467 299.016,91.379 299.528,91.955C300.04,92.531 300.824,92.819 301.88,92.819C303.016,92.819 303.908,92.431 304.556,91.655C305.204,90.879 305.528,89.843 305.528,88.547L305.528,82.355L307.4,82.355L307.4,97.187C307.4,97.731 307.228,98.179 306.884,98.531C306.54,98.883 306.096,99.059 305.552,99.059L298.76,99.059L298.76,97.331L304.88,97.331C305.312,97.331 305.528,97.091 305.528,96.611L305.528,92.099Z" style="fill:white;fill-rule:nonzero;"/>
            <path d="M319.592,92.435L319.304,92.435C319.112,92.803 318.868,93.123 318.572,93.395C318.276,93.667 317.956,93.891 317.612,94.067C317.268,94.243 316.904,94.375 316.52,94.463C316.136,94.551 315.768,94.595 315.416,94.595C314.616,94.595 313.872,94.459 313.184,94.187C312.496,93.915 311.892,93.523 311.372,93.011C310.852,92.499 310.444,91.863 310.148,91.103C309.852,90.343 309.704,89.475 309.704,88.499L309.704,88.115C309.704,87.155 309.856,86.295 310.16,85.535C310.464,84.775 310.872,84.135 311.384,83.615C311.896,83.095 312.496,82.699 313.184,82.427C313.872,82.155 314.6,82.019 315.368,82.019C316.184,82.019 316.948,82.199 317.66,82.559C318.372,82.919 318.92,83.475 319.304,84.227L319.592,84.227L319.592,77.459L321.464,77.459L321.464,94.259L319.592,94.259L319.592,92.435ZM315.608,92.819C316.168,92.819 316.688,92.715 317.168,92.507C317.648,92.299 318.068,92.003 318.428,91.619C318.788,91.235 319.072,90.775 319.28,90.239C319.488,89.703 319.592,89.107 319.592,88.451L319.592,88.163C319.592,87.523 319.488,86.935 319.28,86.399C319.072,85.863 318.788,85.403 318.428,85.019C318.068,84.635 317.644,84.335 317.156,84.119C316.668,83.903 316.152,83.795 315.608,83.795C315.048,83.795 314.524,83.899 314.036,84.107C313.548,84.315 313.124,84.611 312.764,84.995C312.404,85.379 312.124,85.835 311.924,86.363C311.724,86.891 311.624,87.475 311.624,88.115L311.624,88.499C311.624,89.171 311.724,89.771 311.924,90.299C312.124,90.827 312.404,91.279 312.764,91.655C313.124,92.031 313.544,92.319 314.024,92.519C314.504,92.719 315.032,92.819 315.608,92.819Z" style="fill:white;fill-rule:nonzero;"/>
            <path d="M332.504,92.243L332.216,92.243C331.832,93.043 331.3,93.635 330.62,94.019C329.94,94.403 329.224,94.595 328.472,94.595C327.688,94.595 326.96,94.463 326.288,94.199C325.616,93.935 325.028,93.543 324.524,93.023C324.02,92.503 323.624,91.867 323.336,91.115C323.048,90.363 322.904,89.491 322.904,88.499L322.904,88.115C322.904,87.139 323.048,86.275 323.336,85.523C323.624,84.771 324.02,84.135 324.524,83.615C325.028,83.095 325.616,82.699 326.288,82.427C326.96,82.155 327.672,82.019 328.424,82.019C329.24,82.019 329.98,82.199 330.644,82.559C331.308,82.919 331.832,83.475 332.216,84.227L332.504,84.227L332.504,82.355L334.376,82.355L334.376,91.811C334.376,92.291 334.592,92.531 335.024,92.531L335.624,92.531L335.624,94.259L334.352,94.259C333.808,94.259 333.364,94.083 333.02,93.731C332.676,93.379 332.504,92.931 332.504,92.387L332.504,92.243ZM328.664,92.819C329.224,92.819 329.74,92.715 330.212,92.507C330.684,92.299 331.088,92.003 331.424,91.619C331.76,91.235 332.024,90.775 332.216,90.239C332.408,89.703 332.504,89.107 332.504,88.451L332.504,88.163C332.504,87.523 332.408,86.935 332.216,86.399C332.024,85.863 331.756,85.403 331.412,85.019C331.068,84.635 330.66,84.335 330.188,84.119C329.716,83.903 329.208,83.795 328.664,83.795C328.104,83.795 327.592,83.899 327.128,84.107C326.664,84.315 326.26,84.607 325.916,84.983C325.572,85.359 325.304,85.815 325.112,86.351C324.92,86.887 324.824,87.475 324.824,88.115L324.824,88.499C324.824,89.859 325.18,90.919 325.892,91.679C326.604,92.439 327.528,92.819 328.664,92.819Z" style="fill:white;fill-rule:nonzero;"/>
            <path d="M345.992,92.099L345.704,92.099C345.32,92.867 344.816,93.475 344.192,93.923C343.568,94.371 342.776,94.595 341.816,94.595C341.16,94.595 340.556,94.487 340.004,94.271C339.452,94.055 338.98,93.731 338.588,93.299C338.196,92.867 337.892,92.331 337.676,91.691C337.46,91.051 337.352,90.307 337.352,89.459L337.352,82.355L339.224,82.355L339.224,89.219C339.224,90.467 339.48,91.379 339.992,91.955C340.504,92.531 341.288,92.819 342.344,92.819C343.48,92.819 344.372,92.431 345.02,91.655C345.668,90.879 345.992,89.843 345.992,88.547L345.992,82.355L347.864,82.355L347.864,97.187C347.864,97.731 347.692,98.179 347.348,98.531C347.004,98.883 346.56,99.059 346.016,99.059L339.224,99.059L339.224,97.331L345.344,97.331C345.776,97.331 345.992,97.091 345.992,96.611L345.992,92.099Z" style="fill:white;fill-rule:nonzero;"/>
            <path d="M353.312,85.427C353.312,86.003 353.556,86.443 354.044,86.747C354.532,87.051 355.424,87.251 356.72,87.347C358.112,87.459 359.172,87.791 359.9,88.343C360.628,88.895 360.992,89.699 360.992,90.755L360.992,90.899C360.992,91.475 360.876,91.991 360.644,92.447C360.412,92.903 360.092,93.291 359.684,93.611C359.276,93.931 358.78,94.175 358.196,94.343C357.612,94.511 356.976,94.595 356.288,94.595C355.36,94.595 354.564,94.471 353.9,94.223C353.236,93.975 352.684,93.647 352.244,93.239C351.804,92.831 351.472,92.367 351.248,91.847C351.024,91.327 350.896,90.803 350.864,90.275L352.64,89.843C352.72,90.755 353.072,91.487 353.696,92.039C354.32,92.591 355.152,92.867 356.192,92.867C357.072,92.867 357.78,92.695 358.316,92.351C358.852,92.007 359.12,91.523 359.12,90.899C359.12,90.227 358.856,89.747 358.328,89.459C357.8,89.171 356.944,88.987 355.76,88.907C354.384,88.811 353.328,88.491 352.592,87.947C351.856,87.403 351.488,86.611 351.488,85.571L351.488,85.427C351.488,84.867 351.608,84.375 351.848,83.951C352.088,83.527 352.412,83.171 352.82,82.883C353.228,82.595 353.688,82.379 354.2,82.235C354.712,82.091 355.248,82.019 355.808,82.019C356.592,82.019 357.28,82.127 357.872,82.343C358.464,82.559 358.96,82.839 359.36,83.183C359.76,83.527 360.068,83.923 360.284,84.371C360.5,84.819 360.64,85.267 360.704,85.715L358.928,86.147C358.848,85.379 358.54,84.779 358.004,84.347C357.468,83.915 356.768,83.699 355.904,83.699C355.568,83.699 355.244,83.735 354.932,83.807C354.62,83.879 354.344,83.987 354.104,84.131C353.864,84.275 353.672,84.455 353.528,84.671C353.384,84.887 353.312,85.139 353.312,85.427Z" style="fill:white;fill-rule:nonzero;"/>
            <path d="M366.704,92.915C366.704,92.451 366.868,92.055 367.196,91.727C367.524,91.399 367.92,91.235 368.384,91.235C368.848,91.235 369.244,91.399 369.572,91.727C369.9,92.055 370.064,92.451 370.064,92.915C370.064,93.379 369.9,93.775 369.572,94.103C369.244,94.431 368.848,94.595 368.384,94.595C367.92,94.595 367.524,94.431 367.196,94.103C366.868,93.775 366.704,93.379 366.704,92.915Z" style="fill:white;fill-rule:nonzero;"/>
            <path d="M386.552,90.035C386.424,90.691 386.204,91.299 385.892,91.859C385.58,92.419 385.184,92.903 384.704,93.311C384.224,93.719 383.664,94.035 383.024,94.259C382.384,94.483 381.672,94.595 380.888,94.595C380.056,94.595 379.268,94.459 378.524,94.187C377.78,93.915 377.128,93.519 376.568,92.999C376.008,92.479 375.564,91.843 375.236,91.091C374.908,90.339 374.744,89.475 374.744,88.499L374.744,88.211C374.744,87.251 374.908,86.387 375.236,85.619C375.564,84.851 376.008,84.203 376.568,83.675C377.128,83.147 377.78,82.739 378.524,82.451C379.268,82.163 380.056,82.019 380.888,82.019C381.64,82.019 382.336,82.131 382.976,82.355C383.616,82.579 384.18,82.895 384.668,83.303C385.156,83.711 385.556,84.195 385.868,84.755C386.18,85.315 386.392,85.923 386.504,86.579L384.632,87.011C384.584,86.595 384.468,86.191 384.284,85.799C384.1,85.407 383.852,85.063 383.54,84.767C383.228,84.471 382.848,84.235 382.4,84.059C381.952,83.883 381.432,83.795 380.84,83.795C380.264,83.795 379.724,83.903 379.22,84.119C378.716,84.335 378.272,84.639 377.888,85.031C377.504,85.423 377.204,85.891 376.988,86.435C376.772,86.979 376.664,87.571 376.664,88.211L376.664,88.499C376.664,89.171 376.772,89.775 376.988,90.311C377.204,90.847 377.504,91.299 377.888,91.667C378.272,92.035 378.72,92.319 379.232,92.519C379.744,92.719 380.296,92.819 380.888,92.819C381.48,92.819 381.996,92.727 382.436,92.543C382.876,92.359 383.252,92.119 383.564,91.823C383.876,91.527 384.124,91.187 384.308,90.803C384.492,90.419 384.616,90.019 384.68,89.603L386.552,90.035Z" style="fill:white;fill-rule:nonzero;"/>
            <path d="M390.776,94.259L388.904,94.259L388.904,77.459L390.776,77.459L390.776,84.515L391.064,84.515C391.432,83.747 391.948,83.139 392.612,82.691C393.276,82.243 394.088,82.019 395.048,82.019C396.344,82.019 397.396,82.447 398.204,83.303C399.012,84.159 399.416,85.443 399.416,87.155L399.416,94.259L397.544,94.259L397.544,87.539C397.544,86.291 397.264,85.355 396.704,84.731C396.144,84.107 395.384,83.795 394.424,83.795C393.288,83.795 392.396,84.183 391.748,84.959C391.1,85.735 390.776,86.771 390.776,88.067L390.776,94.259Z" style="fill:white;fill-rule:nonzero;"/>
        </g>
        <g>
            <path d="M553.28,94.258L551.264,94.258L551.264,88.642C551.264,88.226 551.168,87.906 550.976,87.682C550.784,87.458 550.448,87.346 549.968,87.346L544.736,87.346L544.736,94.258L542.72,94.258L542.72,77.458L548.72,77.458C549.584,77.458 550.336,77.582 550.976,77.83C551.616,78.078 552.148,78.41 552.572,78.826C552.996,79.242 553.316,79.726 553.532,80.278C553.748,80.83 553.856,81.41 553.856,82.018L553.856,82.738C553.856,83.362 553.684,83.986 553.34,84.61C552.996,85.234 552.464,85.714 551.744,86.05L551.744,86.338C552.224,86.418 552.6,86.61 552.872,86.914C553.144,87.218 553.28,87.65 553.28,88.21L553.28,94.258ZM544.736,85.474L548.48,85.474C549.616,85.474 550.46,85.23 551.012,84.742C551.564,84.254 551.84,83.538 551.84,82.594L551.84,82.162C551.84,81.314 551.564,80.63 551.012,80.11C550.46,79.59 549.616,79.33 548.48,79.33L544.736,79.33L544.736,85.474Z" style="fill:white;fill-rule:nonzero;"/>
            <path d="M564.896,92.242L564.608,92.242C564.224,93.042 563.692,93.634 563.012,94.018C562.332,94.402 561.616,94.594 560.864,94.594C560.08,94.594 559.352,94.462 558.68,94.198C558.008,93.934 557.42,93.542 556.916,93.022C556.412,92.502 556.016,91.866 555.728,91.114C555.44,90.362 555.296,89.49 555.296,88.498L555.296,88.114C555.296,87.138 555.44,86.274 555.728,85.522C556.016,84.77 556.412,84.134 556.916,83.614C557.42,83.094 558.008,82.698 558.68,82.426C559.352,82.154 560.064,82.018 560.816,82.018C561.632,82.018 562.372,82.198 563.036,82.558C563.7,82.918 564.224,83.474 564.608,84.226L564.896,84.226L564.896,82.354L566.768,82.354L566.768,91.81C566.768,92.29 566.984,92.53 567.416,92.53L568.016,92.53L568.016,94.258L566.744,94.258C566.2,94.258 565.756,94.082 565.412,93.73C565.068,93.378 564.896,92.93 564.896,92.386L564.896,92.242ZM561.056,92.818C561.616,92.818 562.132,92.714 562.604,92.506C563.076,92.298 563.48,92.002 563.816,91.618C564.152,91.234 564.416,90.774 564.608,90.238C564.8,89.702 564.896,89.106 564.896,88.45L564.896,88.162C564.896,87.522 564.8,86.934 564.608,86.398C564.416,85.862 564.148,85.402 563.804,85.018C563.46,84.634 563.052,84.334 562.58,84.118C562.108,83.902 561.6,83.794 561.056,83.794C560.496,83.794 559.984,83.898 559.52,84.106C559.056,84.314 558.652,84.606 558.308,84.982C557.964,85.358 557.696,85.814 557.504,86.35C557.312,86.886 557.216,87.474 557.216,88.114L557.216,88.498C557.216,89.858 557.572,90.918 558.284,91.678C558.996,92.438 559.92,92.818 561.056,92.818Z" style="fill:white;fill-rule:nonzero;"/>
            <path d="M571.184,99.058L569.312,99.058L569.312,82.354L571.184,82.354L571.184,84.226L571.472,84.226C571.888,83.506 572.464,82.958 573.2,82.582C573.936,82.206 574.736,82.018 575.6,82.018C576.336,82.018 577.032,82.154 577.688,82.426C578.344,82.698 578.924,83.09 579.428,83.602C579.932,84.114 580.332,84.746 580.628,85.498C580.924,86.25 581.072,87.106 581.072,88.066L581.072,88.546C581.072,89.522 580.928,90.386 580.64,91.138C580.352,91.89 579.956,92.522 579.452,93.034C578.948,93.546 578.36,93.934 577.688,94.198C577.016,94.462 576.304,94.594 575.552,94.594C575.168,94.594 574.776,94.55 574.376,94.462C573.976,94.374 573.596,94.238 573.236,94.054C572.876,93.87 572.544,93.646 572.24,93.382C571.936,93.118 571.68,92.802 571.472,92.434L571.184,92.434L571.184,99.058ZM575.168,92.818C575.744,92.818 576.272,92.718 576.752,92.518C577.232,92.318 577.652,92.034 578.012,91.666C578.372,91.298 578.652,90.85 578.852,90.322C579.052,89.794 579.152,89.202 579.152,88.546L579.152,88.066C579.152,87.426 579.052,86.846 578.852,86.326C578.652,85.806 578.372,85.358 578.012,84.982C577.652,84.606 577.228,84.314 576.74,84.106C576.252,83.898 575.728,83.794 575.168,83.794C574.608,83.794 574.088,83.902 573.608,84.118C573.128,84.334 572.708,84.634 572.348,85.018C571.988,85.402 571.704,85.862 571.496,86.398C571.288,86.934 571.184,87.522 571.184,88.162L571.184,88.45C571.184,89.106 571.288,89.702 571.496,90.238C571.704,90.774 571.988,91.234 572.348,91.618C572.708,92.002 573.128,92.298 573.608,92.506C574.088,92.714 574.608,92.818 575.168,92.818Z" style="fill:white;fill-rule:nonzero;"/>
            <path d="M584.672,99.058L582.8,99.058L582.8,82.354L584.672,82.354L584.672,84.226L584.96,84.226C585.376,83.506 585.952,82.958 586.688,82.582C587.424,82.206 588.224,82.018 589.088,82.018C589.824,82.018 590.52,82.154 591.176,82.426C591.832,82.698 592.412,83.09 592.916,83.602C593.42,84.114 593.82,84.746 594.116,85.498C594.412,86.25 594.56,87.106 594.56,88.066L594.56,88.546C594.56,89.522 594.416,90.386 594.128,91.138C593.84,91.89 593.444,92.522 592.94,93.034C592.436,93.546 591.848,93.934 591.176,94.198C590.504,94.462 589.792,94.594 589.04,94.594C588.656,94.594 588.264,94.55 587.864,94.462C587.464,94.374 587.084,94.238 586.724,94.054C586.364,93.87 586.032,93.646 585.728,93.382C585.424,93.118 585.168,92.802 584.96,92.434L584.672,92.434L584.672,99.058ZM588.656,92.818C589.232,92.818 589.76,92.718 590.24,92.518C590.72,92.318 591.14,92.034 591.5,91.666C591.86,91.298 592.14,90.85 592.34,90.322C592.54,89.794 592.64,89.202 592.64,88.546L592.64,88.066C592.64,87.426 592.54,86.846 592.34,86.326C592.14,85.806 591.86,85.358 591.5,84.982C591.14,84.606 590.716,84.314 590.228,84.106C589.74,83.898 589.216,83.794 588.656,83.794C588.096,83.794 587.576,83.902 587.096,84.118C586.616,84.334 586.196,84.634 585.836,85.018C585.476,85.402 585.192,85.862 584.984,86.398C584.776,86.934 584.672,87.522 584.672,88.162L584.672,88.45C584.672,89.106 584.776,89.702 584.984,90.238C585.192,90.774 585.476,91.234 585.836,91.618C586.196,92.002 586.616,92.298 587.096,92.506C587.576,92.714 588.096,92.818 588.656,92.818Z" style="fill:white;fill-rule:nonzero;"/>
            <path d="M598.088,88.882C598.136,90.066 598.504,91.018 599.192,91.738C599.88,92.458 600.84,92.818 602.072,92.818C602.632,92.818 603.12,92.754 603.536,92.626C603.952,92.498 604.308,92.322 604.604,92.098C604.9,91.874 605.14,91.614 605.324,91.318C605.508,91.022 605.656,90.706 605.768,90.37L607.544,90.85C607.208,91.954 606.588,92.854 605.684,93.55C604.78,94.246 603.56,94.594 602.024,94.594C601.176,94.594 600.396,94.446 599.684,94.15C598.972,93.854 598.36,93.434 597.848,92.89C597.336,92.346 596.936,91.698 596.648,90.946C596.36,90.194 596.216,89.362 596.216,88.45L596.216,87.874C596.216,87.042 596.364,86.266 596.66,85.546C596.956,84.826 597.368,84.206 597.896,83.686C598.424,83.166 599.044,82.758 599.756,82.462C600.468,82.166 601.24,82.018 602.072,82.018C603.048,82.018 603.892,82.198 604.604,82.558C605.316,82.918 605.9,83.362 606.356,83.89C606.812,84.418 607.148,84.994 607.364,85.618C607.58,86.242 607.688,86.818 607.688,87.346L607.688,88.882L598.088,88.882ZM602.072,83.794C601.544,83.794 601.052,83.878 600.596,84.046C600.14,84.214 599.74,84.45 599.396,84.754C599.052,85.058 598.772,85.414 598.556,85.822C598.34,86.23 598.2,86.674 598.136,87.154L605.816,87.154C605.784,86.642 605.66,86.178 605.444,85.762C605.228,85.346 604.948,84.994 604.604,84.706C604.26,84.418 603.868,84.194 603.428,84.034C602.988,83.874 602.536,83.794 602.072,83.794Z" style="fill:white;fill-rule:nonzero;"/>
            <path d="M609.536,82.354L613.856,82.354L613.856,83.938L614.144,83.938C614.448,83.282 614.88,82.798 615.44,82.486C616,82.174 616.64,82.018 617.36,82.018C618.56,82.018 619.528,82.41 620.264,83.194C621,83.978 621.392,85.122 621.44,86.626L619.472,86.914C619.472,85.81 619.208,85.014 618.68,84.526C618.152,84.038 617.504,83.794 616.736,83.794C616.24,83.794 615.812,83.89 615.452,84.082C615.092,84.274 614.792,84.538 614.552,84.874C614.312,85.21 614.136,85.602 614.024,86.05C613.912,86.498 613.856,86.978 613.856,87.49L613.856,92.53L616.88,92.53L616.88,94.258L609.248,94.258L609.248,92.53L611.984,92.53L611.984,84.082L609.536,84.082L609.536,82.354Z" style="fill:white;fill-rule:nonzero;"/>
            <path d="M626.168,85.426C626.168,86.002 626.412,86.442 626.9,86.746C627.388,87.05 628.28,87.25 629.576,87.346C630.968,87.458 632.028,87.79 632.756,88.342C633.484,88.894 633.848,89.698 633.848,90.754L633.848,90.898C633.848,91.474 633.732,91.99 633.5,92.446C633.268,92.902 632.948,93.29 632.54,93.61C632.132,93.93 631.636,94.174 631.052,94.342C630.468,94.51 629.832,94.594 629.144,94.594C628.216,94.594 627.42,94.47 626.756,94.222C626.092,93.974 625.54,93.646 625.1,93.238C624.66,92.83 624.328,92.366 624.104,91.846C623.88,91.326 623.752,90.802 623.72,90.274L625.496,89.842C625.576,90.754 625.928,91.486 626.552,92.038C627.176,92.59 628.008,92.866 629.048,92.866C629.928,92.866 630.636,92.694 631.172,92.35C631.708,92.006 631.976,91.522 631.976,90.898C631.976,90.226 631.712,89.746 631.184,89.458C630.656,89.17 629.8,88.986 628.616,88.906C627.24,88.81 626.184,88.49 625.448,87.946C624.712,87.402 624.344,86.61 624.344,85.57L624.344,85.426C624.344,84.866 624.464,84.374 624.704,83.95C624.944,83.526 625.268,83.17 625.676,82.882C626.084,82.594 626.544,82.378 627.056,82.234C627.568,82.09 628.104,82.018 628.664,82.018C629.448,82.018 630.136,82.126 630.728,82.342C631.32,82.558 631.816,82.838 632.216,83.182C632.616,83.526 632.924,83.922 633.14,84.37C633.356,84.818 633.496,85.266 633.56,85.714L631.784,86.146C631.704,85.378 631.396,84.778 630.86,84.346C630.324,83.914 629.624,83.698 628.76,83.698C628.424,83.698 628.1,83.734 627.788,83.806C627.476,83.878 627.2,83.986 626.96,84.13C626.72,84.274 626.528,84.454 626.384,84.67C626.24,84.886 626.168,85.138 626.168,85.426Z" style="fill:white;fill-rule:nonzero;"/>
            <path d="M647.48,94.258L644.024,94.258L642.584,83.218L642.296,83.218L640.856,94.258L637.4,94.258L635.528,82.354L637.448,82.354L639.032,93.394L639.32,93.394L640.712,82.354L644.168,82.354L645.56,93.394L645.848,93.394L647.432,82.354L649.352,82.354L647.48,94.258Z" style="fill:white;fill-rule:nonzero;"/>
            <path d="M654.368,78.802C654.368,78.338 654.532,77.942 654.86,77.614C655.188,77.286 655.584,77.122 656.048,77.122C656.512,77.122 656.908,77.286 657.236,77.614C657.564,77.942 657.728,78.338 657.728,78.802C657.728,79.266 657.564,79.662 657.236,79.99C656.908,80.318 656.512,80.482 656.048,80.482C655.584,80.482 655.188,80.318 654.86,79.99C654.532,79.662 654.368,79.266 654.368,78.802ZM650.96,92.53L655.136,92.53L655.136,84.082L651.392,84.082L651.392,82.354L657.008,82.354L657.008,92.53L660.896,92.53L660.896,94.258L650.96,94.258L650.96,92.53Z" style="fill:white;fill-rule:nonzero;"/>
            <path d="M664.16,92.53L668.48,92.53L668.48,79.186L664.304,79.186L664.304,77.458L670.352,77.458L670.352,92.53L674.672,92.53L674.672,94.258L664.16,94.258L664.16,92.53Z" style="fill:white;fill-rule:nonzero;"/>
        </g>
    </g>
</svg>
